<?xml version="1.0" encoding="UTF-8"?>
<svg xmlns="http://www.w3.org/2000/svg" viewBox="247 386 200 80">
  <style>
    .st7 { fill: #ab1515; }
  </style>
  <path class="st7" d="M409.7,437.3c-1-3.9-3-7.7-5.4-10.9,4.2-7.3,7.3-14.6,5.1-23.2-1.6-6.2-5.9-11-11.4-14-2.8-1.6-6-2.1-9.2-2.4-12,0-24.3,0-36.2,0h-75.4v79.3h98.7c4.6,0,9.6.3,14.2-.3,4.8-.6,9.8-3,13.2-6.4,1-1.1,1.9-2.2,2.8-3.4,3.6-5.8,5.2-11.8,3.6-18.6ZM291,400.5l77.8-.2h0c6-.3,12-.2,18.1.1,6.1.3,8.5,4.6,8.8,5,1.2,1.9,1.6,4.3,1,6.5-.5,1.8-1.4,3.2-2.6,4.4-2.1,2-5,3.1-7.9,3.1-6.4,0-12.8-.2-19.2-.2h-48.7l-27.3.2v-18.9ZM396.3,445.8c-1.3,3-4,5.1-7.1,5.9s-1.7.4-2.7.5c-10.6,1.1-22.2.2-32.9.2-20.8,0-41.7,0-62.6-.4v-19.1h66.2c8.4,0,23.8-1,31.2,0,1.9.3,3.7,1.2,5.2,2.3,1.9,1.5,3.1,3.5,3.4,5.9.2,1.7,0,3.3-.7,4.7Z"/>
</svg>