<?xml version="1.0" encoding="UTF-8"?>
<svg xmlns="http://www.w3.org/2000/svg" viewBox="130 386 740 80">
  <defs>
    <style>
      .st7 {
        fill: #ffffff;
      }
      .st3 {
        stroke: #ffffff;
        fill: none;
        stroke-linecap: round;
        stroke-linejoin: round;
      }
    </style>
  </defs>
  
  <g>
    <line class="st3" x1="277.2" y1="386.7" x2="277.1" y2="386.7"/>
    <path class="st7" d="M409.7,437.3c-1-3.9-3-7.7-5.4-10.9,4.2-7.3,7.3-14.6,5.1-23.2-1.6-6.2-5.9-11-11.4-14-2.8-1.6-6-2.1-9.2-2.4-12,0-24.3,0-36.2,0h-75.4v79.3h98.7c4.6,0,9.6.3,14.2-.3,4.8-.6,9.8-3,13.2-6.4,1-1.1,1.9-2.2,2.8-3.4,3.6-5.8,5.2-11.8,3.6-18.6ZM291,400.5l77.8-.2h0c6-.3,12-.2,18.1.1,6.1.3,8.5,4.6,8.8,5,1.2,1.9,1.6,4.3,1,6.5-.5,1.8-1.4,3.2-2.6,4.4-2.1,2-5,3.1-7.9,3.1-6.4,0-12.8-.2-19.2-.2h-48.7l-27.3.2v-18.9ZM396.3,445.8c-1.3,3-4,5.1-7.1,5.9s-1.7.4-2.7.5c-10.6,1.1-22.2.2-32.9.2-20.8,0-41.7,0-62.6-.4v-19.1h66.2c8.4,0,23.8-1,31.2,0,1.9.3,3.7,1.2,5.2,2.3,1.9,1.5,3.1,3.5,3.4,5.9.2,1.7,0,3.3-.7,4.7Z"/>
  </g>
  <path class="st7" d="M247.5,386.7c3.6.4,6.8,1.6,9.9,3.5,5.3,3.2,8.9,8.5,10.1,14.5,1.7,8.3-1.1,15.2-5.7,21.9,4.1,5.7,6.8,11.2,6.1,18.4-.5,6.1-3.5,11.8-8.3,15.6-3.5,2.8-7.2,4.2-11.5,4.8-7,1-105.2.3-113.4.6,0-3.7,0-10.8,0-14.3,4.4-.1,91.2.4,111.4-.2,3.9-.1,7.4-2.8,8.4-6.6s0,0,0,0c.6-2.6.2-5.3-1.3-7.5-1.2-1.7-2.9-2.9-4.9-3.6s-1.7-.4-2.6-.5c-6.8-.5-15.3-.5-22.2-.5h-88.7v-13.4c8.4,0,100.8.3,109.4-.4,3.3-.3,6.9-1.2,9.1-3.9,1.4-1.7,1.8-4,1.4-6.1-.4-2-1.2-3.6-2.4-4.9-2-2.3-5-3.7-8.1-3.7h-109.4v-13.6s100.5-.1,112.7,0h0Z"/>
  <path class="st7" d="M553,419.3c0,9.1,0,18.8-.7,28-.9,4.3-2.7,8.4-5.8,11.5-3.5,3.6-8.5,7.3-13.5,7.3s-97.7-.3-109.4,0c0,0,0-9.1,0-13.6,20.8.1,41.6.1,62.4,0,13.8,0,28,.8,41.7,0,5.2-.3,13.1-1.4,12.3-19.5-22.4.3-44.8.1-67.1.2-9.3,0-25.1,1-33.8-.4-4.6-.8-8.9-3-12.2-6.2-9-9.5-7.6-26.6-7.6-39.7h14.9c0,3.8-.2,16.9,0,24.2,0,1.9.5,3.6,1.8,5h0c1.3,1.3,2.6,2.6,4.4,3,6.9,1.5,26.1.4,34,.3l65.3-.3v-32.3h13.4"/>
  <path class="st7" d="M836.3,466h-13.1v-63.6c-20.9,13.2-101.5,61.9-106.3,63.7h-12.1c0-14.7.2-67.6,0-79.3h12.1v63.9c4.1-2.2,9.1-5.2,13.1-7.6,0,0,72.5-42.8,93.2-56.4h13.1"/>
  <path class="st7" d="M561.2,386.7h13.1c0,8-.4,16.3.9,24.4s6.3,7.8,7.6,7.9c10.5,1.3,23.2.2,33.7.1h64.3c.4,0,.7-.3.7-.7.3-10.5,0-21.2,0-31.1s.3-.7.7-.7h11.9c.4,0,.7.3,.7.7v78c0,10.8-.3.7-.7.7h-11.9c-.4,0-.7-.4-.7-.8,0-9.4.2-21.3,0-31.9,0-.4-.3-.7-.7-.7-30.6,0-62.3-.2-92.7,0-7.3-.2-14.7-.8-19.9-6.6-5.6-6.3-7-14.8-7-23.5s.2-10.9,0-16v.2Z"/>
</svg>